<svg xmlns="http://www.w3.org/2000/svg"  viewBox="0 0 24 24" width="60px" height="60px"><path d="M 12 1 C 5.935 1 1 5.935 1 12 C 1 18.065 5.935 23 12 23 C 18.065 23 23 18.065 23 12 C 23 5.935 18.065 1 12 1 z M 8 7 L 16 7 C 16.552 7 17 7.448 17 8 C 17 8.552 16.552 9 16 9 L 13 9 L 13 10.027344 C 15.201 10.139344 18 10.639 18 12 C 18 13.361 15.201 13.859656 13 13.972656 L 13 17 C 13 17.552 12.552 18 12 18 C 11.448 18 11 17.552 11 17 L 11 13.972656 C 8.799 13.859656 6 13.36 6 12 C 6 10.64 8.799 10.140344 11 10.027344 L 11 9 L 8 9 C 7.448 9 7 8.552 7 8 C 7 7.448 7.448 7 8 7 z M 11 11.027344 C 8.577 11.152344 7.1190938 11.706484 6.9960938 12.021484 C 7.1360937 12.335484 8.978 13 12 13 C 14.963 13 16.790187 12.361 16.992188 12 C 16.814187 11.682 15.37 11.149344 13 11.027344 L 13 12 L 11 12 L 11 11.027344 z"/></svg>
